/* XPM */
static char *_3f658e848c641aed48db4db5d5b4fb6Xle6q0FS8X8soeHq[] = {
/* columns rows colors chars-per-pixel */
"16 32 9 1 ",
"  c None",
". c black",
"X c #0B0B28",
"o c #252D25",
"O c gray32",
"+ c #8C6D3F",
"@ c #53824A",
"# c #A2D265",
"$ c #67A7E3",
/* pixels */
"                ",
"                ",
"                ",
"                ",
"        .       ",
"       .@.      ",
"      .@#.      ",
"     .@@#@.     ",
"     .#@@#.     ",
"    .@o@@o#.    ",
"   .@@@@o@@#.   ",
"   .o@@@#@@o.   ",
"    .o@@@#o.    ",
"   .@#@o@o@#.   ",
"  .@#@@@#@@@#.  ",
"   .o@@@@#@@.   ",
"   .ooo@o@#o#.  ",
"  .@@#@o@#o@@.  ",
" .o@@@@#@#@@.   ",
"  .o@o@#@@oo@.  ",
" .@@@@@ooo##@.  ",
".o@@@#@@#@@##@. ",
"  .o@@@o@@@o@.  ",
" .@#@oo@@o@#@@. ",
".o@@@@@#@@@@#@o.",
" .o@oo@ooooo@o. ",
"  .o..o.....o.  ",
" OO.O.XXXX.O.OO ",
"OOOOO$++++$OOOOO",
" OOOOO$$$$OOOOO ",
"    OOOOOOOO    ",
"                "
};
