/* XPM */
static char *_44acf4c77604a39db5331ed69f962bcB8RBcW6DZWrgQcc6[] = {
/* columns rows colors chars-per-pixel */
"16 16 2 1 ",
"  c #8C6D3F",
". c #9D8756",
/* pixels */
"                ",
"... ... ... ... ",
"... ... ... ... ",
"... ... ... ... ",
"                ",
". ... ... ... ..",
". ... ... ... ..",
". ... ... ... ..",
"                ",
"... ... ... ... ",
"... ... ... ... ",
"... ... ... ... ",
"                ",
". ... ... ... ..",
". ... ... ... ..",
". ... ... ... .."
};
