/* XPM */
static char *_d9cc101763f4d5cba7c9739763435a3nj5QOKQ0XK9Ss3Hr[] = {
/* columns rows colors chars-per-pixel */
"16 16 8 1 ",
"  c None",
". c black",
"X c #AD1D23",
"o c #8C6D3F",
"O c #F6754E",
"+ c #D384C7",
"@ c #9FD2E5",
"# c #F2EDF1",
/* pixels */
"         ...    ",
"        .....   ",
"     ..XXX....  ",
"      ....X..   ",
"     .@@@...    ",
"    .#.#.@@.    ",
" . .OOO####..   ",
".o. .#####@.o.  ",
" .o. .+++++.oo. ",
"  .o.#####.oo.  ",
"   .##.##.o..+. ",
"   .####.o.#+.  ",
"   .##.##.#@.   ",
"   .#######@.   ",
"    .#####@.    ",
"     .@@@@.     "
};
