/* XPM */
static char *ea44882f3f82422ee22e56434f5ecf61HAX2CdcsqnDHnQUi[] = {
/* columns rows colors chars-per-pixel */
"16 16 2 1 ",
"  c #9FD2E5",
". c #F2EDF1",
/* pixels */
"................",
"... ... ........",
"....   .........",
"................",
"................",
"................",
"......... .. ...",
"..........  ....",
".. .. ..........",
"...  ...........",
"................",
"................",
"........ ...... ",
".........  ..  .",
"...........  ...",
"................"
};
