/* XPM */
static char *_09cca028d5a4b159f27ec75a1c21411VrqGdEruTtvVzitN[] = {
/* columns rows colors chars-per-pixel */
"64 53 219 2 ",
"   c None",
".  c black",
"X  c #3F1D0E",
"o  c #3F240F",
"O  c #3F2A0F",
"+  c #3F2A11",
"@  c #3F2713",
"#  c #7F370F",
"$  c #7F3414",
"%  c #7F3B16",
"&  c #7F2E10",
"*  c #7F470E",
"=  c #7F4D12",
"-  c #7F4C1B",
";  c #7F4316",
":  c #7F5B16",
">  c #7F5719",
",  c #7F6117",
"<  c #7F7010",
"1  c #7F4D2C",
"2  c #7F4824",
"3  c #7F562A",
"4  c #7F5A26",
"5  c #7F4E34",
"6  c #7F5639",
"7  c #7F652B",
"8  c #7F6725",
"9  c #7F6433",
"0  c #7F693A",
"q  c #7F733E",
"w  c #7F702A",
"e  c #7F6C44",
"r  c #7F7344",
"t  c #7F774B",
"y  c #7F7557",
"u  c #7F7B61",
"i  c #7F7872",
"p  c #BF540F",
"a  c #BF5B0E",
"s  c #BF5513",
"d  c #BF5C14",
"f  c #BF5B1A",
"g  c #BF541C",
"h  c #BF4E12",
"j  c #BF6514",
"k  c #BF641D",
"l  c #BF6B1B",
"z  c #BF6B16",
"x  c #BF731C",
"c  c #BF7B1B",
"v  c #BF7814",
"b  c #BF730F",
"n  c #BF5C24",
"m  c #BF5827",
"M  c #BF6424",
"N  c #BF6C22",
"B  c #BF642A",
"V  c #BF6B2B",
"C  c #BF7323",
"Z  c #BF7C24",
"A  c #BF732B",
"S  c #BF7B2C",
"D  c #BF6B33",
"F  c #BF6536",
"G  c #BF7332",
"H  c #BF7B34",
"J  c #BF743B",
"K  c #BF7C3B",
"L  c #BF7D42",
"P  c #BF7D4B",
"I  c #BF7449",
"U  c #BF7E56",
"Y  c #BF6142",
"T  c #BF7F64",
"R  c #7F872E",
"E  c #7F8350",
"W  c #7F8F72",
"Q  c #BF821B",
"!  c #BF8917",
"~  c #BF921F",
"^  c #BF8323",
"/  c #BF8B23",
"(  c #BF852B",
")  c #BF8C2A",
"_  c #BF9324",
"`  c #BF912B",
"'  c #BF9B2A",
"]  c #BF8434",
"[  c #BF8B35",
"{  c #BF843C",
"}  c #BF8B3C",
"|  c #BF9334",
" . c #BF933C",
".. c #BF9B3B",
"X. c #BF9B33",
"o. c #BFA432",
"O. c #BFA63B",
"+. c #BFAC3C",
"@. c #BFAB33",
"#. c #BFB539",
"$. c #BFAB28",
"%. c #BFA613",
"&. c #BF8443",
"*. c #BF8B44",
"=. c #BF844B",
"-. c #BF8C4C",
";. c #BF9344",
":. c #BF934C",
">. c #BF9C4B",
",. c #BF9C45",
"<. c #BF8453",
"1. c #BF8D54",
"2. c #BF8C5B",
"3. c #BF855A",
"4. c #BF9454",
"5. c #BF9C53",
"6. c #BF945C",
"7. c #BF9C5B",
"8. c #BFAB44",
"9. c #BFA34C",
"0. c #BFAD4D",
"q. c #BFA344",
"w. c #BFB749",
"e. c #BFA355",
"r. c #BFA45C",
"t. c #BFAB5B",
"y. c #BFAA54",
"u. c #BFB35C",
"i. c #BFBC5B",
"p. c #BFB856",
"a. c #BF8C64",
"s. c #BF8767",
"d. c #BF9364",
"f. c #BF9C62",
"g. c #BF946C",
"h. c #BF9C6C",
"j. c #BF9B74",
"k. c #BF9777",
"l. c #BF8B72",
"z. c #BFA364",
"x. c #BFAC64",
"c. c #BFA46C",
"v. c #BFAD6C",
"b. c #BFB463",
"n. c #BFBB66",
"m. c #BFB26B",
"M. c #BFBB6C",
"N. c #BFA474",
"B. c #BFAC73",
"V. c #BFA47B",
"C. c #BFAB7C",
"Z. c #BFB473",
"A. c #BFBC74",
"S. c #BFB37C",
"D. c #BFBB7D",
"F. c #BFC249",
"G. c #BFC557",
"H. c #BFC565",
"J. c #BFD36D",
"K. c #BFC373",
"L. c #BFC57C",
"P. c #BFCB7B",
"I. c #BFCB72",
"U. c #BFD179",
"Y. c #BF9C82",
"T. c #BFA782",
"R. c #BFAB84",
"E. c #BFAC8B",
"W. c #BFA78D",
"Q. c #BFB284",
"!. c #BFBC84",
"~. c #BFB48C",
"^. c #BFBE8C",
"/. c #BFAD95",
"(. c #BFA694",
"). c #BFB594",
"_. c #BFBB93",
"`. c #BFB69B",
"'. c #BFBB9B",
"]. c #BFBBA5",
"[. c #BFB7AA",
"{. c #BFC483",
"}. c #BFCC85",
"|. c #BFC28C",
" X c #BFCB8B",
".X c #BFD38D",
"XX c #BFD384",
"oX c #BFC393",
"OX c #BFCC94",
"+X c #BFC59B",
"@X c #BFCB9B",
"#X c #BFD293",
"$X c #BFD49C",
"%X c #BFDA9B",
"&X c #BFC3A4",
"*X c #BFCBA4",
"=X c #BFC5AC",
"-X c #BFCDAB",
";X c #BFD4A4",
":X c #BFD9A5",
">X c #BFD5AB",
",X c #BFDAAC",
"<X c #BFC4B3",
"1X c #BFC6BC",
"2X c #BFD4B3",
"3X c #BFDBB3",
"4X c #BFDBBC",
"5X c #BFD4BA",
"6X c #BFE1BC",
"7X c #BFE0B1",
"8X c #BFE0AF",
"9X c #BFCEC5",
"0X c #BFDEC3",
"qX c #BFDECC",
"wX c #BFD4C5",
"eX c #BFDBD1",
"rX c #BFE1C5",
"tX c #BFE3CC",
"yX c #BFE5D2",
/* pixels */
"                                                                                                                                ",
"                                                                                                                                ",
"                                                                                                                                ",
"                                                                                                                                ",
"                                                        . . . . . . . . . . . . .                                               ",
"                            . . . . . . . . . . . . . . V.~./.T.g.a.6.h.6.D 3 I I . . .                                         ",
"                          . t 2.P 2.=.m =.j.j.j.3 B N G V J J <.U =.4.*.{ f.f.-.d.d.=.l..                                       ",
"                        . W g.V.C.&.c.R.N.c.V.V.c.N k 4 J =.L <.-.{ f.:.{ L D P =.K L ] U . .                                   ",
"                        . 4 6 2.L :.-.H H P &.4.4.:.~.4.H =.K &.5.} 4.*.1.6.N.).z.6.{ 4.4.J =..                                 ",
"                      . F F G G K 4.[ 4.4.M -.f.4.G A 4.K &.{ :.] ..q.:.Z } N._.7.*.*.;.c.G V F . .                             ",
"                    . e e K { :.,.*.>.9.(  .{ { G { ;.,.-.4.3.P &.A K H C ,.v.} _.@XB.Q.t.W.V.<XY.[..                           ",
"                  . r 3.d.G G V K { ;.,.,.>.5.,.z.` ] 7.6.h.g.a.<.j.4.4.:.'.Q.K *.5.]./.4.&X:./.V.<.. .                         ",
"                  . a.D r.H *.S s k N l A A V H :.] z.`.&X`.W./.j.7.:.7.:.e.{ *.*.:.&.g.} H K 1.1.N.V.T.. .                     ",
"                . ].3.z.`.[ ( c l C Z G  .H -.1.7.m.Q.].S A D n :.&X_.R.V.V.V.2.:.z.J R.;.M G :.z.P 2.2.P d..                   ",
"              . 6 3 D { ] l N ` / [ K N.4.6.z.f.2.4.=.x ] S :.j.;.7.h.N.'.V.~.N.5.;.K :.7.z.V.&.[ C <.<.2.d.g..                 ",
"              . g.d.T.2.1.{ ] f.>.G G n N K c.~.2.6.v &.C p  .k j C V H K J G C.=X~.N.).T.h._.Q.C.] V.&.5.j.g.d..               ",
"            . u 2.H N.1.5.,.^ :.[ J J C 2.<.h.d.K 2.p l C c z N { g.C.&.G A k d.=X<XR.E.W.E.2.1.4.L D <.(.=.B.7.f.. .           ",
"          . `.P C.'.|.;.7.N.;.5.;.f.6.d.H L g.D P L _ d x b p p p j k <.k s s `.W.].E._./.T.).4.K A D M [ C S =XC.<.s..         ",
"          . k.&.-.*.6.1.*.*.l { 4.).R.N.[ h.d.f J J d v ,. .H &.4.M n p m f n 9X<X'.=XoXQ.C.C.4.C.-.:.S e./.-.6.=.P )..         ",
"        . 0 3 =.f.B. .1.f.f.} >.:.;.H V K <.j.V g B z x [ l A = * p % - B f W.[.wX9X5.f.!.oX^.v.e._.5.:.| } ;.{ n 1.R.g..       ",
"        . a.D L :.] :.:.r.,.;.[ >.Z ] &.4.6.h.{ h g V s g & o $ % * % # Y - V.g.d.} 5.;...9.,.oX_.m.t.z.H h.` | N H P =..       ",
"      . t I L *.>.:.6.r.} c.e.r.5.,.,.-.} c.C.5.g =.= # ; % O $ $ @ 1 % & F - L 6.K &.U ] ] ) ,.V k &.1.H x.S.:.h.V N F .       ",
"      . q - B -.7.C.B.1.*.z.c.*.K e.~.v.v.S.C.f.f.M ; $ + $ X o @ o @ @ $ 1 j.*.9.| C ( [ { H H -.N A -.{ f.{ U U _.H B a..     ",
"      . w 4 V { M L -.f.6.h.j.m k B &.:.;.z._.&X].'.E.D % + o o o o O o $ 1.V.3.N.,.c c ;.} :.) c S C S { { K n M ~.d.: e .     ",
"      . 4 M L f.A D P f.f.1.G V N V 4.:.{ ;.;.1.6.h.R.f.f.C.R.A m 1 m f ] | ,./ ( ! | | ! ^ ] ^ u.u.9.] { :.f C S &.=.=.1..     ",
"      . 7 G H 1.K >.G B.'.1.C.G C -.=.H ] 4.:.6.L 4.4.( x x x Z ` ^ ` Q ^ ) ! ! @.8.b.F.}.H.O.` _ _ 8.0.oXS.d /  .,.S k.l..     ",
"      . > C H K =.K  .7.Q.~.).[ S.R.c.B.] ( *.2.*.] v | ^ l c  .^ _ w.P.u.M.L.;XI.3X>X>XXXF.#.XXJ._ Z } ] 7.&.^ D.k.A { <X.     ",
"    . E 4 M } M H N B *.f.c.] } f.7.z.v.,.c.x.,.;.( X.` ! Q ~ _.O.;X%X>X4X4XOX#X{.>XK. X3X%X:XP.4X;Xo./ 1.6.B.[ | k A H ~..     ",
"    . &X> > N : *.Z C ;.;.H H K H *.5.r.z.B.1X&Xz.r.>.9.X.o.' @XK.#XqX3X#X>Xu.0.:XrXrX0X>XrX,X:XU.J.%Xn.e.6.c L ( Z ^ H '..     ",
"    . E &.- : S f = ;.c.} -.L &.} >.x.4.Z.y.v.5.Z ;.[ ..OXi.n.+...,X:X;X@XA.$X{.K.M.>XyXyX>X3X:X3X4X,X2Xu.B.Q.) C H : l 9X.     ",
"    . u N.: - k N k k A r.&.l =.:.5.:.4.z.7.4.:.9.D.y.Q ..) u.G.O.3X:X4X3X3X4X4X3X;XtX4X%XrX4X3X3X:XP.OX$X/ B.Z H V.] 7 =X.     ",
"      . N.C.> = * { j ( z.M x } 7.5.h.4.C.t.,.f.q.x.).' ! ' K.8.$X3X4XtXtXtXqXyXyXrXtX6XtXtXJ.4X6X0X3X4X>X_ b.6.1XH H N.&X.     ",
"      . <X~.v.= * { Z Q N f A e.5.S.-.;.>.:.r.Q.) {.q.e...' 8.Q 4XrXrXyXtXtXtXtXtXtXtXtX#XM.w.%.>XXX3XA.0.w.! C.4.} *.&X=X.     ",
"      . 3 <X!.R * = j d k C J ] e.K N.z.X.r.t.x.D.p.| 0.8.X.p...b.tXtXtXtX3X$.#X.XK.P..X6X%X.XH.I.3X#X{.H.#.o.[ } H -X5X)..     ",
"        . [.~.!.: > z f M Z a :.B.K 4.f.r.z.r.,.q.t...>.*X+.+.>X3XrX,X4X3X;XXX:XP.#X%X.XP.8X4X3X,XrX:X,X}.}.A.b q.D.*XoX.       ",
"        . 9 7 <X+X) , : C S Z j Z z.=. .B.B.z.z.-.v.,.9.*.{ y.OX6X0X>X;X#X0X4X>X%X3X4X4X}.%X%X@.4X3XP.OX3X;X>Xp.Q +X*Xz..       ",
"          . 2 - m.!.D.[ , k Z H l A H H d.x.N.B.B.z.E.Z.'.wX .OXrXtXrX3XrX#.F.6XtXrX3X5Xo.! +.;XL.P.}.i.M.p.;X0.8.*X-Xd..       ",
"            . 3 q H m.oXu.= d f = A N { c 4.N.c.r.e.) !.2.9X+.4X0XtXtXrXtXU..X4X@.8.>Xw.G.w.H.3XK.0.}.8. X;X}.}.A.5X2X.         ",
"              . 0 w ( A.oX!.= = V s H C C k :.l Z } c c Q Q w.,X4XrXU.tX7X6X4X,XU.#X3X:X;X.X%XL.L.M. XK. X Xi.b.n.,X5X.         ",
"                . t > ;.v.|.D.) 0 N M H Z { k ( ,./ ^ Q A.*._ D.;XOX4X;XrX,X>X3X8X,XrX:X3XtX$X0X:X;X2X#X}.{.< M.eXwX2X.         ",
"                . k.t w B.v.oX+X^.H 4 C k N H 1.1.Z | ] '.v X.*XqX,X,XrX4XrX0X$X4X2XqX4Xo., w *XtXrX4XL.O.!...] >.1X.           ",
"                  . W 0 - { ;.Z.+X+XZ.A C ] N C H a j H v c.n.0X0X,X0XrXb.wX{.oXt . . . . . . . |.@X*X;X|.!.e.8 3 .             ",
"                    . . 6 8 =.} B.D.-X-XoX} A d B k a ] z ~ -X0XrX4X4X2Xz.`.. . .               . B.{ oX|.@X[ t .               ",
"                        . 5 9 0 H 5.!.^.&X*X+X{.^.m.m.e.| ,.|.4X4X4X4X. . .                       . r.x.eXe.0 .                 ",
"                          . y 1 9 4 } r.M.@X@X-X-XOX;X*X X X;X5X4X4XN..                             . . . . .                   ",
"                            . i 6 2 3 =.] :.x.Z.}.M.u.0.0.O.0.{.>XqX.                                                           ",
"                              . . 6 1 t r 3 &.{ G } ] S ) | S } +X.                                                             ",
"                                  . . y 9 0 0 0 7 n : C d l 8 A +X.                                                             ",
"                                      . t y r r =.r 9 9 2 T 4 D 6..                                                             ",
"                                        . . 1XW y y 5 6 6 5 . . .                                                               ",
"                                            . . . . . . . .                                                                     ",
"                                                                                                                                ",
"                                                                                                                                "
};
