/* XPM */
static char *_b591339d51545daa24890c6ac2336ablzEJLlMjLx7kh1wZ[] = {
/* columns rows colors chars-per-pixel */
"64 57 203 2 ",
"   c None",
".  c black",
"X  c #001916",
"o  c #001C19",
"O  c #3F1B16",
"+  c #3F1D19",
"@  c #00211D",
"#  c #3F2315",
"$  c #3F231D",
"%  c #3F2B1C",
"&  c #3F2B13",
"*  c #3F331B",
"=  c #3F3B19",
"-  c #3F2621",
";  c #3F2B24",
":  c #3F2E29",
">  c #3F3226",
",  c #3F332C",
"<  c #3F3C26",
"1  c #3F3731",
"2  c #3F3B34",
"3  c #3F3E39",
"4  c #7F3F16",
"5  c #7F340E",
"6  c #7F3923",
"7  c #3F4135",
"8  c #3F433C",
"9  c #3F483E",
"0  c #3F402A",
"q  c #7F4D14",
"w  c #7F4819",
"e  c #7F5414",
"r  c #7F5C15",
"t  c #7F531B",
"y  c #7F5C1F",
"u  c #7F440E",
"i  c #7F641B",
"p  c #7F6518",
"a  c #7F4B26",
"s  c #7F4529",
"d  c #7F5229",
"f  c #7F5B2B",
"g  c #7F5C20",
"h  c #7F4B3B",
"j  c #7F5E37",
"k  c #7F6222",
"l  c #7F652E",
"z  c #7F6A2F",
"x  c #7F6A34",
"c  c #7F6738",
"v  c #7F7336",
"b  c #7F733C",
"n  c #7F732A",
"m  c #3F4641",
"M  c #3F4B43",
"N  c #3F4E49",
"B  c #3F5146",
"V  c #3F524A",
"C  c #3F534B",
"Z  c #3F5A4F",
"A  c #3F5551",
"S  c #7F4C44",
"D  c #7F4F49",
"F  c #7F4642",
"G  c #7F544C",
"H  c #7F554A",
"J  c #7F5651",
"K  c #7F5952",
"L  c #7F5A56",
"P  c #7F5C54",
"I  c #7F5D5B",
"U  c #7F7446",
"Y  c #7F6056",
"T  c #7F625B",
"R  c #7F6C5E",
"E  c #7F7852",
"W  c #7F6661",
"Q  c #7F6B63",
"!  c #7F6D6A",
"~  c #7F726B",
"^  c #7F786F",
"/  c #7F7C73",
"(  c #7F7F79",
")  c #7F7672",
"_  c #BF6A14",
"`  c #BF661B",
"'  c #BF6C1E",
"]  c #BF6213",
"[  c #BF721B",
"{  c #BF7B1F",
"}  c #BF7416",
"|  c #BF5D2B",
" . c #BF6D23",
".. c #BF6A27",
"X. c #BF7424",
"o. c #BF7B24",
"O. c #BF7628",
"+. c #BF7C2B",
"@. c #BF6D38",
"#. c #BF7332",
"$. c #BF7A33",
"%. c #BF7D3C",
"&. c #BF743A",
"*. c #BF7B45",
"=. c #BF7F51",
"-. c #7F8354",
";. c #7F8B51",
":. c #7F827B",
">. c #7F8176",
",. c #BF8326",
"<. c #BF8B27",
"1. c #BF842C",
"2. c #BF8C2B",
"3. c #BF9324",
"4. c #BF952C",
"5. c #BF9B2C",
"6. c #BF9B27",
"7. c #BF8433",
"8. c #BF8B34",
"9. c #BF843B",
"0. c #BF8B3B",
"q. c #BF9334",
"w. c #BF9B32",
"e. c #BF943B",
"r. c #BF9C3B",
"t. c #BFA32E",
"y. c #BFA234",
"u. c #BFA43D",
"i. c #BFAC3E",
"p. c #BFAC35",
"a. c #BFB23B",
"s. c #BFB137",
"d. c #BF8242",
"f. c #BF8A45",
"g. c #BF864A",
"h. c #BF9342",
"j. c #BF9D43",
"k. c #BF9249",
"l. c #BF9B4B",
"z. c #BF8B53",
"x. c #BF9D53",
"c. c #BF9857",
"v. c #BFA342",
"b. c #BFAC43",
"n. c #BFAA4A",
"m. c #BFB44C",
"M. c #BFB847",
"N. c #BFAB56",
"B. c #BFAD5B",
"V. c #BFA257",
"C. c #BFB454",
"Z. c #BFBB5B",
"A. c #BFB457",
"S. c #BF9A60",
"D. c #BF8A6A",
"F. c #BFA961",
"G. c #BFB564",
"H. c #BFBB64",
"J. c #BFBB6A",
"K. c #BFB16A",
"L. c #BFBB7C",
"P. c #BFB776",
"I. c #BFC256",
"U. c #BFC46D",
"Y. c #BFC668",
"T. c #BFC373",
"R. c #BFC47C",
"E. c #BFCA7B",
"W. c #BFC974",
"Q. c #7F8B87",
"!. c #7F928E",
"~. c #7F9291",
"^. c #7F9D9C",
"/. c #BF9F9A",
"(. c #BFBE89",
"). c #BFAE96",
"_. c #BFAAA7",
"`. c #BFCC85",
"'. c #BFCD8C",
"]. c #BFC487",
"[. c #BFD084",
"{. c #BFD28C",
"}. c #BFDA89",
"|. c #BFC997",
" X c #BFD394",
".X c #BFD49C",
"XX c #BFDB9C",
"oX c #BFD3A3",
"OX c #BFDAA4",
"+X c #BFD5AD",
"@X c #BFDBAC",
"#X c #BFDDB3",
"$X c #BFDCBB",
"%X c #BFD4B2",
"&X c #BFCEA4",
"*X c #BFE1A8",
"=X c #BFE3B4",
"-X c #BFE1BD",
";X c #BFE3C4",
":X c #BFE4CA",
">X c #BFE9CC",
",X c #BFE8D4",
"<X c #BFE9D8",
/* pixels */
"                                                                                                                                ",
"                                                                                                                                ",
"                                                  . . . . . . . . . . . . . . . .                                               ",
"                                            . . . 3 : ; ; - - - , 1 m A C C 8 ; ; . .                                           ",
"                                      . . . ; : , 1 3 m M C C C A C L L L L A N 1 ; 3 .                                         ",
"                                . . . ; : 1 8 M M N N N N N M M M N J L I T P Z N 2 , ; . . .                                   ",
"                            . . - ; 2 8 M N M M M M 8 8 8 9 m m m M M N C C C J K K C , 1 : - .                                 ",
"                      . . . - 1 , 8 M N M M M M m m 8 8 2 2 2 2 2 2 3 2 8 8 8 M M G K J + , N ; .                               ",
"                    . @ - ; : , 2 M C C N M M 8 8 2 , , , , , : : , , , 1 2 3 8 8 8 N C C , 8 N 3 . .                           ",
"                  . - : 2 3 N N B H C C N M 8 2 , : ; ; ; ; ; ; ; - ; ; , 1 1 2 2 3 8 M G C G N 3 2 ; .                         ",
"                . @ , 2 2 8 8 M M M M M N 9 2 , ; ; ; ; ; ; ; ; ; ; - ; ; ; , , 1 2 1 2 m M N N N 3 : $ . .                     ",
"              . o ; 2 8 8 8 8 8 8 8 8 9 8 2 , $ $ , m 8 3 M M M 8 8 2 , ; - ; ; ; 1 2 1 2 2 M M M N 8 ; @ - .                   ",
"            . @ @ 1 8 9 9 8 8 8 8 8 8 8 2 ; + + h ( Q.~ J T G K T P T W M : - % $ $ : 1 2 8 8 8 8 m M 8 , $ - .                 ",
"          . - o ; 2 8 M 9 8 2 2 3 2 2 1 ; $ O + 1 / ^.:.J K G P T Q ~ ~ C N , ; $ $ ; , 1 2 8 8 8 2 8 m 3 : o .                 ",
"          . o $ , 8 8 8 8 2 3 8 7 8 1 ; $ + X + $ 3 /.:.N K L I Y Q ^ R M 8 8 ; + + ; , 1 2 8 3 8 8 2 2 1 1 o : .               ",
"        . 1 + , 1 3 8 8 2 3 8 2 2 , ; $ + O X ; ; ; / ! $ 2 9 N G W >.Y 1 , ; ; + X ; 1 2 3 8 8 M N 8 8 3 , ; $ 1 .             ",
"        . o - 1 , ; , , 2 2 2 2 1 2 ; + O O X /.: $ + X O O X X $ , Q 1 , - - - X + , 2 8 8 M 8 M N M 9 8 1 $ X : .             ",
"        . + - : , ; ; , 1 2 2 1 2 2 2 , + O X K O O t 7.7. .k t y < O X $ $ + $ , , 8 8 3 3 8 8 8 M N M 8 1 o - + ; .           ",
"      . @ o $ - : , , , , 1 7 8 8 8 9 B 8 O O X O t +.q.2.X.O.p p i i w X O X , 1 , 8 8 3 3 2 8 8 8 M M 8 3 + ; o N .           ",
"      . o X + ; 1 2 2 1 1 2 2 8 8 M N G N - O d.` ,.[ O.' ] { X.r e y i q X X $ , 8 8 8 3 3 2 2 3 8 M M M 8 ; - $ o .           ",
"      . X X + - , 1 1 1 1 2 2 8 8 S H K 8 ; # [ X.X._ _ ` r _ ] q u t q r X X ; , N 9 8 8 2 3 2 1 1 1 2 8 3 : $ $ X S..         ",
"    . E X X X $ ; 1 2 2 1 2 2 8 8 8 S H H $ + X.[ } [ [ X.i ..p e q t y l # X - M H N 8 8 8 8 3 1 , , , , , ; $ o @ *..         ",
"    . j X X X + - , 1 2 2 2 2 2 2 2 8 N G N # & [ _ [ 8. .i p i k w 5 e & X $ 2 P H M M 8 8 8 3 2 1 , ; - $ + + o W #..         ",
"    . b + X X X $ ; , 1 1 1 , ; , 1 2 8 9 G M % 4 [ O.' q u w d 6 ; N G C B C N B N M M 8 8 3 2 2 1 1 , - + O X X - #.S..       ",
"    . z 0 X X X + - ; , , , ; 8 2 2 2 2 8 8 B J : % = < h 4 * % ; 8 H G C N N M M m M M 8 8 8 2 3 3 1 : + O X X X ; $.x..       ",
"    . f % X X X + $ $ $ ; 1 8 1 , , 1 1 2 2 3 8 8 8 9 N H C B C H N N D G M M M 9 9 8 8 8 8 8 8 8 8 1 ; O X O X X 7 f.e..       ",
"    . z % X X X X + + + + $ ; > , 1 1 2 2 2 1 , , > 9 N H N 9 8 3 3 2 8 8 2 2 3 2 8 8 8 2 3 8 8 8 3 : + O X X X : %.%.N..       ",
"    . b q * X X + + + + $ $ $ - ; , , 1 1 1 1 , ; M D M 7 1 1 ; ; ; , , , 1 1 1 1 2 1 2 2 2 2 2 1 : - + X O X X > +.$.T..       ",
"    . b y y X X + + $ $ + + $ $ $ - ; > , , 1 1 , $ ; , , , , ; ; ; ; : , , , , , , : ; , , , : ; $ + O X O O X x 9.1.`..       ",
"    . x k i ; X + $ $ $ + + + $ $ $ $ $ ; , , 2 - $ ; ; ; ; , , : : ; ; , ; ; ; ; ; ; - - ; ; $ $ $ + O X X X O v $.h. X.       ",
"    . ;.k X.k X o - ; - $ $ - $ $ $ $ $ $ : 3 J C 2 , ; : , , , , 1 , , ; ; ; ; ; ; $ $ $ $ $ + + + + O X X X O 9.k.].$X.       ",
"      . n X.o.% X ; 8 8 8 3 3 , ; $ $ ; , , 2 ; 2 8 M 9 8 2 2 2 2 1 , ; ; ; ; ; ; ; ; ; ; $ $ $ - $ + + X X + + +.$..X#X.       ",
"      . $.X.+. .o X : 1 1 9 C H H Y G H M S B T W Q P 1 , ; > , ; ; ; ; ; ; ; ; ; - ; ; 1 1 2 1 ; , $ + O O @ s X.%.+X.         ",
"      . z.2.+.2.k g X X $ , 3 8 K Q ~ ) :./ ! T T Y G G H N 9 8 1 , ; ; ; ; ; ; ; ; : ; , 1 , 8 ) Q 8 $ O X ; 9.9.v #X.         ",
"      . V.7.1.<.,.` #.O X $ , W ^ Q W ! / / / / ^ R 9 7 8 9 8 2 1 1 7 8 , ; ; ; , 3 8 8 8 9 F 8 T T M - + o 9.7.7.'.%X.         ",
"      . (.0.<.4.0.o.8.+.d X ; A ^ ^ ^ ^ ~ / / / / ( ) G 8 2 2 8 2 2 2 8 8 N ! W T W W ! W L S 8 H 1 : $ X $ 7.8.f.oX.X.         ",
"      . z.F.o.w.<.o.,.,.' + X + G Q ^ ^ ^ ) ^ / ^ / ^ ! P H M D H H S D H G W ( !.!.Q.~.Q.! M 8 H : + + + f.0.f.'.+X(..         ",
"        . l.r.q.4.2.1.4.o.O.# + $ > P I W ~ ^ / ~ ~ ~ T H M m M K J J K L I ! Q._.~./ L D 3 - $ ; O O * O.h.0.f.%XoX.           ",
"        . k.L.v.w.2.2.q.q.o.' ..a $ + - , 2 M G G S 8 1 , ; ; - ; , 8 8 8 M K Q.~.8 + + $ - + $ ; O N.1.e.h.k.%X$X|..           ",
"        . f.P.].4.y.w.r.e.<.+.o.1.X. .&.$ + + O O + O + O O X O + $ ; ; ; ; 2 T T $ + O $ + % 6 f $.V.w.0.e..X X&X.             ",
"          . V.(.].A.4.n.2.2.<.2.o.O.[ 8.0.a * % $ O O O O O O O O + O O $ + O $ $ - O % 6 s h.q.8.B.r.8.j.l.@XoXL..             ",
"          . f.L.|.'.A.w.n.q.2.<.{ } { w.8.e.r.e.7.9.0.$.* # # # # + $ $ + $ % + : 6 * 2.+.8.r.2.e.e.e.e.e.OX@XJ..               ",
"            . F.'.oX'.E.C.5.<.r.4.,.o.q.4.4.2.4.w.2.8.w.q.<.2.1.o.,.0.+.i = d 7.o.o.7.8.1.8.0.| a e.q.T..X#X].-..               ",
"            . -.H.'.#X.X{.W.i.2.4.4.4.4.5.4.4.4.w.5.5.5.<.4.3.4.w.u.w.r.r.e.q.2.v.j.e.v.,.7.| f H.{.OX#X#XR.c..                 ",
"              . %.H.#X;XOX.X XZ.u.i.y.4.w.4.w.y.u.u.u.y.v.4.w.5.w.y.w.6.r.4.u.r.v.r.4.u.8.q.G.@X-X:X@X X{.c..                   ",
"                . d.R.:X;XOXOX.X X.XW.M.a.i.5.3.6.5.5.M.t.5.w.6.t.y.y.5.2.q.q.4.e.u.v.J.H.OX.X-X:X;X@XE.V..                     ",
"                  . h.L.$X;X-X,X#X#X#XXXXX}.E.I.M.Z.M.a.a.s.s.p.a.p.y.5.n.m.A.T. X.XOX@X@X'.W.@X#X`.R.j..                       ",
"                    . 9.B. X-X,X-X;X>X>X>X-X@XOXOX@XXX*XOX}.}.}.[.Y.Y.`. X X'.{. X[.oX.X{.`.@X XR.C.x..                         ",
"                      . b 7.J.OX:X<X,X>X;X>X;X#X#X@X-X=X*X=X=X*X*XXX X X`.E.[.`.T.C.Z.U.`.U.W.J.e.c..                           ",
"                        . -.#.0.R.T.#X;X-X:X:X:X-X;X#XOXOX=X-X=X$XOX#XOXE.U.U.Z.i.C.Z.Z.m.b.+.h.. .                             ",
"                          . . &.$.7.e.J.J.E.`..XOX@X$X;XK.@X;X-X#X@X'.C.m.i.b.b.u.u.v.u.r.j.z..                                 ",
"                              . . b d.$.+.+.$.8.q.8.v.B.K.@X;X.XE.n.v.v.r.w.r.r.e.8.7.k.=.. .                                   ",
"                                  . . g.v &.#.#.9.$.$.$.9.0.N.v.v.e.e.8.e.0.0.l.8.f.. . .                                       ",
"                                      . . . . U b x l l c @.@.d.x.d.k.*.*.D.U . . .                                             ",
"                                              . . . . . . . . . . . . . . . .                                                   ",
"                                                                                                                                ",
"                                                                                                                                "
};
