/* XPM */
static char *_d99c3fbaac94b70f754541eb82958657mN0gkiklrkC49mu[] = {
/* columns rows colors chars-per-pixel */
"64 64 190 2 ",
"   c None",
".  c #050405",
"X  c #090707",
"o  c #090708",
"O  c #0C0A0A",
"+  c #160306",
"@  c #1E0307",
"#  c #1C0309",
"$  c #120E0D",
"%  c #15110F",
"&  c #1A120F",
"*  c #151313",
"=  c #1A1514",
"-  c #1D1915",
";  c #1E1A1A",
":  c #1B1718",
">  c #24030A",
",  c #2C050C",
"<  c #350209",
"1  c #39060C",
"2  c #221612",
"3  c #241A15",
"4  c #2C1B16",
"5  c #221D1C",
"6  c #2A1E1A",
"7  c #321F19",
"8  c #3A1716",
"9  c #25211E",
"0  c #2B221D",
"q  c #34211B",
"w  c #3A251E",
"e  c #30281D",
"r  c #241F20",
"t  c #262121",
"y  c #2A2423",
"u  c #2B2924",
"i  c #342321",
"p  c #342B23",
"a  c #382C24",
"s  c #312D2A",
"d  c #3B2D29",
"f  c #3F2720",
"g  c #3C332B",
"h  c #393329",
"j  c #3E3932",
"k  c #383730",
"l  c #430209",
"z  c #49010B",
"x  c #57010C",
"c  c #4B0111",
"v  c #550513",
"b  c #5D1F1F",
"n  c #62000D",
"m  c #69000E",
"M  c #6F0017",
"N  c #640717",
"B  c #780E1E",
"V  c #710010",
"C  c #7C1320",
"Z  c #422C25",
"A  c #4F2B24",
"S  c #47342A",
"D  c #44392C",
"F  c #4A3B2D",
"G  c #4C342C",
"H  c #51322A",
"J  c #5E352E",
"K  c #543A2F",
"L  c #433D36",
"P  c #4B3F31",
"I  c #593A31",
"U  c #432939",
"Y  c #65322A",
"T  c #6C3E34",
"R  c #653D33",
"E  c #793D35",
"W  c #75382D",
"Q  c #4B4135",
"!  c #434039",
"~  c #49433A",
"^  c #514435",
"/  c #534739",
"(  c #554A3B",
")  c #5A4D3C",
"_  c #5C503D",
"`  c #61493B",
"'  c #794A3C",
"]  c #193B5A",
"[  c #282A40",
"{  c #114663",
"}  c #114C7C",
"|  c #0C5177",
" . c #4D4942",
".. c #524E46",
"X. c #565046",
"o. c #5B5244",
"O. c #5D584C",
"+. c #5E5854",
"@. c #615443",
"#. c #675949",
"$. c #625D52",
"%. c #6C6152",
"&. c #6C665B",
"*. c #696558",
"=. c #756C5C",
"-. c #746D60",
";. c #777063",
":. c #79746A",
">. c #7C7565",
",. c #872228",
"<. c #933232",
"1. c #804337",
"2. c #9C4A3B",
"3. c #9A4639",
"4. c #8B4E40",
"5. c #914F42",
"6. c #875C4A",
"7. c #885042",
"8. c #945848",
"9. c #A35C4C",
"0. c #946A54",
"q. c #B5604F",
"w. c #A36854",
"e. c #B86757",
"r. c #B2745D",
"t. c #837B67",
"y. c #987F6E",
"u. c #867F79",
"i. c #B57B62",
"p. c #BB7A61",
"a. c #C06D5D",
"s. c #C6725E",
"d. c #CA7662",
"f. c #CC7A64",
"g. c #C17B62",
"h. c #8B8271",
"j. c #86817A",
"k. c #89847E",
"l. c #8E8878",
"z. c #95887A",
"x. c #98917E",
"c. c #BC866A",
"v. c #B6866C",
"b. c #AD8979",
"n. c #CA8E71",
"m. c #DA8E72",
"M. c #CA9177",
"N. c #DC9374",
"B. c #DC9978",
"V. c #E09B7E",
"C. c #D5A27E",
"Z. c #8E878D",
"A. c #999381",
"S. c #9E9886",
"D. c #9F9C9D",
"F. c #A49F94",
"G. c #A9A293",
"H. c #B4AE99",
"J. c #B8A191",
"K. c #DBAB84",
"L. c #DCB389",
"P. c #E4A282",
"I. c #EBAC86",
"U. c #E9AF8A",
"Y. c #E9A782",
"T. c #E5B58C",
"R. c #EEB38C",
"E. c #E3B98E",
"W. c #F2B58C",
"Q. c #EFBC93",
"!. c #E6BD93",
"~. c #C6BFB2",
"^. c #EDC699",
"/. c #F3C497",
"(. c #F4C699",
"). c #FACF9F",
"_. c #F7CC9E",
"`. c #CECABC",
"'. c #CAC5B5",
"]. c #D0CABC",
"[. c #F8CFA0",
"{. c #FCD7A4",
"}. c #FFDFAB",
"|. c #FCD8A5",
" X c #D4CFC3",
".X c #D9D4CA",
"XX c #DED9D0",
"oX c #E1DCD4",
"OX c #E4E0D8",
"+X c #EDE9E5",
/* pixels */
"                                                                                                                                ",
"                                                                                                                                ",
"                                                                                                                                ",
"                                                                                                                                ",
"                                                                                                                                ",
"                                                                                                                                ",
"                                                                                                                                ",
"                                                                                                                                ",
"                                                          . . . . .                                                             ",
"                                                  . . . o $ $ $ $ $ o . . .                                                     ",
"                                                O O O O * = = = = = * O O O O                                                   ",
"                                              X * = = = = = = = = = = = * = * X                                                 ",
"                                              X * = = = = ; ; ; ; ; ; ; * = * o                                                 ",
"                                            X o * = = = ; t y y y y y t ; ; : * X                                               ",
"                                            X X $ = = ; 5 t y y y y y y y t 5 = X                                               ",
"                                        X X O O $ = : t y y t t t u s t y t 5 ; $ X X                                           ",
"                                        X X O * $ ; 5 t y y ; = = a D - y y t ; $ X X                                           ",
"                                        X X O * $ ; 5 t t t 5 5 y ~ / t t t t 5 $ X X                                           ",
"                                        X X O X * ; 5 t ; 5 P _ =.l.u.+.; 5 r ; * X X                                           ",
"                                        X X O o * ; 5 5 9 &.A.A.X.o s &.&.X.$ O * X X                                           ",
"                                        X X o o * = * = ;.! X X 2 F p X X - ( O * X X X                                         ",
"                                        X X O O * = = = ;.! X X 2 F p X X - ( O * . X X                                         ",
"                                      X O O O o * = & >.L 6 T 5.9.e.9.T a y - ( O O O X                                         ",
"                                      X O O o o * ~ o.y q J 9.d.f.f.d.q.5.' p = D $ $ X                                         ",
"                                      X O O O * = ) #.5 Y 3.q.s.N.R.Y.f.2.2.W * o.$ $ X                                         ",
"                                      X O O X * = o.$.5 v B ,.<.a.W.I.a.B B N % o.$ $ X                                         ",
"                                      X O O X * = o.%.5 c M C ,.e.W.I.e.M M v % o.$ $ X                                         ",
"                                      X O O o * = o.%.5 # > , 1 E m.g.b > > @ % o.* * X                                         ",
"                                      X O O O * g u 9 6 ] } [ 8 7.U.c.U | | { 6 F * = X                                         ",
"                                      X O O O * ( * X Y z.D.b.i.C.{.!.b.Z.Z.u.S = u u X                                         ",
"                                      X O O O * o.= X 1.B.(.).).{.}.}._.Q.R.n.^ o d d X                                         ",
"                                      X O O O * o.= X 1.B.).}.}.}.}.}.}.}.[.n.^ o d d X                                         ",
"                                      . o o O O ) = X A p.(.}.(.U.U.U.Q.|./.r.p 3 u u X                                         ",
"                                        X X O $ a $ X 2 I c.Q.I.m.m.N.B.C.c.J - 0 * * .                                         ",
"                                        X o * ; O $ * 3 = H 6.0.0.0.0.6.R H = p $ X .                                           ",
"                                          X ; ; $ ; ; * 5 = o X X $ * $ O * u 5 o X                                             ",
"                                          X O = O o O ; t y * X O 6 d u = ; 0 O O X                                             ",
"                                9 s = X   $ $ = o o O ; 5 5 * O $ 2 i 5 * * $ O % X                                             ",
"                              0 y.J.` 6 X Z S ( % o o * * o O - * o O o o O O O % X                                             ",
"                              K P.P.^.v.X Z =.@.6 o O $ ; = o o O * * X O O o = $ X                                             ",
"                            w c./.T.w.) X g A.@.6 X a ( 0 % O O * * $ o 3 p O o X X                                             ",
"                            ^ K.w.i.L.4 O ( x.D O X & P ^ t.X.*.H.H.>.L &.e - Q = X                                             ",
"                            q i.(.E.' O ) 2 / - X   . D p = -.H.`.+X.Xh.a $ $ S @.D X X X X X X                                 ",
"                              O O O % / ) / 3 2 X   . X X X = D D - p g O X X 3 @.-.x.$ F 4.L.^.D                               ",
"                                  $ O Z ) 3 X X       . a 0 $ 0 %.S.t.a O & X o 2 s ^ ( F K.V.M.a                               ",
"                                    = = $ X           . = q & O a @./ % X X     X o O ^ 3 8.T.i.7                               ",
"                                                    . X X $ $ O O = * X X .           $ X & 0 3                                 ",
"                                                    . < z z v m x l l z < .                                                     ",
"                                                  . X + @ 1 x n n m V z + .                                                     ",
"                                                  . h j $.@.8 @ > , , i ~ $ .                                                   ",
"                                                . X 5 9 k =.~ L j.k.-.O.y O .                                                   ",
"                                              . X O & $ X &.X.:.oXOX~.-.O & O                                                   ",
"                                            . O = 6 q 4 O &.X.j.XX.X X=.$ w 3 X                                                 ",
"                                            X % q w w 4 $ &.o.j.].'.~.O.$ w 2 X                                                 ",
"                                            X O 2 2 = $ X $. .:.`.`.G.P O & O X                                                 ",
"                                            X o $ = $ O X  .L %.`. Xz.Q X $ o X                                                 ",
"                                          X O = 3 w 3 = O ..L L j.F.z.~ $ 3 $ X                                                 ",
"                                          X = 7 7 4 & $ X j u . .  .h.h $ & $ X                                                 ",
"                                          X & % 3 & $ X . . .     k ..O & $ $ .                                                 ",
"                                          X X % $ o X .             . X X o O X X                                               ",
"                                          X = 7 2 & X                 O & = = & X X                                             ",
"                                          X q f w 2 X                 X & = 2 4 = X                                             ",
"                                          X G K w = X                   X X X X X .                                             ",
"                                          X X X X X X                                                                           "
};
